; NON-PLATED HOLES START AT T1
; THROUGH (PLATED) HOLES START AT T100
M48
INCH
T1C0.094488
T100C0.042000
T101C0.040000
T102C0.031497
T103C0.035000
%
T1
X000800Y022921
X015000Y022921
X000800Y000721
X015000Y000721
T100
X013380Y019821
X010400Y019821
X011420Y009321
X014400Y009321
T101
X003400Y021321
X010400Y021321
X009400Y021321
X008400Y021321
X007400Y021321
X006400Y021321
X005400Y021321
X004400Y021321
T102
X008400Y002321
X007416Y002321
T103
X008400Y007321
X005400Y017321
X008400Y011321
X004400Y017321
X011400Y011321
X003900Y006321
X005400Y011321
X004400Y011321
X006400Y005321
X013400Y017321
X009400Y017321
X012400Y017321
X007400Y017321
X010400Y017321
X006400Y017321
X013400Y011321
X009400Y011321
X012400Y011321
X003900Y002321
X007400Y011321
X003400Y017321
X010400Y011321
X006400Y011321
X003400Y011321
X014400Y017321
X008400Y017321
X011400Y017321
X014400Y011321
T00
M30
