G04 MADE WITH FRITZING*
G04 WWW.FRITZING.ORG*
G04 DOUBLE SIDED*
G04 HOLES PLATED*
G04 CONTOUR ON CENTER OF CONTOUR VECTOR*
%ASAXBY*%
%FSLAX23Y23*%
%MOIN*%
%OFA0B0*%
%SFA1.0B1.0*%
%ADD10C,0.074000*%
%ADD11C,0.075000*%
%ADD12C,0.064000*%
%ADD13C,0.062992*%
%ADD14R,0.064000X0.064000*%
%ADD15R,0.075000X0.075000*%
%ADD16R,0.062992X0.062992*%
%LNCOPPER0*%
G90*
G70*
G54D10*
X1380Y2052D03*
X1330Y2127D03*
X1280Y2052D03*
G54D11*
X640Y532D03*
X840Y732D03*
G54D12*
X440Y2132D03*
X540Y2132D03*
X640Y2132D03*
X740Y2132D03*
X840Y2132D03*
X940Y2132D03*
X1040Y2132D03*
X1140Y2132D03*
G54D11*
X1440Y1732D03*
X1440Y1132D03*
X1340Y1732D03*
X1340Y1132D03*
X1240Y1732D03*
X1240Y1132D03*
X1140Y1732D03*
X1140Y1132D03*
X1040Y1732D03*
X1040Y1132D03*
X940Y1732D03*
X940Y1132D03*
X840Y1732D03*
X840Y1132D03*
X740Y1732D03*
X740Y1132D03*
X640Y1732D03*
X640Y1132D03*
X540Y1732D03*
X540Y1132D03*
X440Y1732D03*
X440Y1132D03*
X340Y1732D03*
X340Y1132D03*
X390Y232D03*
X390Y632D03*
G54D13*
X742Y232D03*
X840Y232D03*
G54D11*
X1080Y1952D03*
X1380Y1952D03*
G54D14*
X440Y2132D03*
G54D15*
X1440Y1732D03*
G54D16*
X742Y232D03*
G04 End of Copper0*
M02*